<?xml version="1.0" encoding="utf-8" ?>
<svg xmlns="http://www.w3.org/2000/svg" xmlns:xlink="http://www.w3.org/1999/xlink" width="256" height="256">
	<path fill="#13142A" transform="scale(0.250466 0.250466)" d="M274.063 782.233C261.964 768.322 249.632 755.215 238.781 740.216C228.7 726.283 219.709 711.477 211.192 696.551C163.288 612.605 139.27 516.316 131.543 420.5C129.508 395.278 130.08 369.724 130.497 344.447L180.167 322.15L186.901 235.408C187.22 234.503 187.938 234.416 188.703 234.043L332.465 162.114L326.368 190.928L323.899 206.205C315.504 208.318 307.212 213.495 299.466 217.369L265.534 234.336L235.492 249.3C229.663 252.211 222.019 255.251 217.098 259.424L211.47 326.571L211.11 339.253C211.081 340.993 211.388 343.078 210.25 344.494C209.849 344.685 209.428 344.962 208.984 345L208.969 380.726L208.995 396.391C209.008 400.428 208.731 404.784 210.448 408.543L197.388 459.216C195.718 465.501 195.586 472.373 195.145 478.836C192.831 512.785 197.078 549.422 211.133 580.693L222.614 603.299C224.942 607.423 228.655 612.249 230.195 616.625C231.045 622.437 233.721 627.106 236.181 632.333C244.149 649.263 253.809 664.904 263.874 680.634L277.815 702.368L288.097 716.992C289.72 719.293 292.021 721.844 293.002 724.472L267.922 724.524L255.878 724.834L255.392 725.042C254.601 725.322 254.298 725.18 253.5 725.076C250.123 724.635 246.308 725.002 242.884 725.047L268.707 766.564C270.316 769.162 276.065 776.836 275.602 779.711C275.446 780.682 274.801 781.616 274.063 782.233Z"/>
	<path fill="#FEFEFE" transform="scale(0.250466 0.250466)" d="M255.878 724.834C254.982 724.749 254.206 724.929 253.554 724.247C251.448 722.044 249.82 718.606 248.136 716.007L227.218 681.729C183.074 602.731 159.272 510.437 152.235 420.592L150.459 358.067L194.25 338.462C195.493 337.847 198.26 336.722 198.775 335.424C199.179 334.409 198.921 331.941 198.949 330.797L199.398 316.484L202.739 272.823C203.505 265.091 203.766 256.368 206.223 248.993L239.058 232.94L292.5 206.256L312.067 196.483C315.177 194.93 318.225 193.074 321.427 191.746C323.306 190.966 324.335 190.473 326.368 190.928L323.899 206.205C315.504 208.318 307.212 213.495 299.466 217.369L265.534 234.336L235.492 249.3C229.663 252.211 222.019 255.251 217.098 259.424L211.47 326.571L211.11 339.253C211.081 340.993 211.388 343.078 210.25 344.494C209.849 344.685 209.428 344.962 208.984 345L162.326 365.946L165.051 430.522C171.483 503.81 189.751 579.281 221.829 645.63L240.193 679.652L252.579 701.433L267.922 724.524L255.878 724.834Z"/>
	<defs>
		<linearGradient id="gradient_0" gradientUnits="userSpaceOnUse" x1="296.63666" y1="506.05399" x2="180.37326" y2="570.84454">
			<stop offset="0" stop-color="#78240C"/>
			<stop offset="1" stop-color="#B84011"/>
		</linearGradient>
	</defs>
	<path fill="url(#gradient_0)" transform="scale(0.250466 0.250466)" d="M267.922 724.524L252.579 701.433L240.193 679.652L221.829 645.63C189.751 579.281 171.483 503.81 165.051 430.522L162.326 365.946L208.984 345L208.969 380.726L208.995 396.391C209.008 400.428 208.731 404.784 210.448 408.543L197.388 459.216C195.718 465.501 195.586 472.373 195.145 478.836C192.831 512.785 197.078 549.422 211.133 580.693L222.614 603.299C224.942 607.423 228.655 612.249 230.195 616.625C231.045 622.437 233.721 627.106 236.181 632.333C244.149 649.263 253.809 664.904 263.874 680.634L277.815 702.368L288.097 716.992C289.72 719.293 292.021 721.844 293.002 724.472L267.922 724.524Z"/>
	<defs>
		<linearGradient id="gradient_1" gradientUnits="userSpaceOnUse" x1="215.34836" y1="279.32904" x2="843.57861" y2="772.27563">
			<stop offset="0" stop-color="black"/>
			<stop offset="1" stop-color="#151528"/>
		</linearGradient>
	</defs>
	<path fill="url(#gradient_1)" transform="scale(0.250466 0.250466)" d="M391.434 130.411C399.053 127.494 406.271 123.543 413.51 119.807L434.666 109.103L511.312 69.6619L631.611 131.466C634.365 126.149 636.388 120.2 638.4 114.551C643.448 100.374 647.195 86.4196 646.578 71.2308C665.092 95.1047 679.514 124.436 687.773 153.5L690.639 162.249L837.404 233.857L843.561 320.638L894.581 344.577C894.616 377.174 894.739 409.567 891.387 442.033C884.109 512.52 865.919 580.989 837.834 646.006C825.931 673.563 812.455 700.663 795.393 725.434C784.204 741.679 770.688 756.979 756.706 770.882C754.39 773.184 751.181 775.382 749.25 777.949L800.247 832.379L718.28 832.375C716.356 832.372 702.291 831.802 701.395 832.347C700.076 833.15 698.567 834.995 697.402 836.074L688.272 844.222L654.449 870.84C614.935 899.954 571.623 924.31 528.01 946.682L515.05 953.077C514.097 953.531 512.513 954.563 511.427 954.366C509.904 954.091 507.656 952.628 506.215 951.943L492.668 945.355C446.583 922.419 402.475 895.992 361.561 864.693L334.99 843.75L324.491 834.872C323.475 834.001 321.849 832.086 320.713 831.533C319.152 830.772 252.719 831.648 244.451 831.724C237.755 831.785 229.563 832.802 223.009 831.685L264.912 790.537C267.568 788.043 270.905 783.92 274.063 782.233C274.801 781.616 275.446 780.682 275.602 779.711C276.065 776.836 270.316 769.162 268.707 766.564L242.884 725.047C246.308 725.002 250.123 724.635 253.5 725.076C254.298 725.18 254.601 725.322 255.392 725.042L255.878 724.834L267.922 724.524L293.002 724.472C292.021 721.844 289.72 719.293 288.097 716.992L277.815 702.368L263.874 680.634C253.809 664.904 244.149 649.263 236.181 632.333C233.721 627.106 231.045 622.437 230.195 616.625C228.655 612.249 224.942 607.423 222.614 603.299L211.133 580.693C197.078 549.422 192.831 512.785 195.145 478.836C195.586 472.373 195.718 465.501 197.388 459.216L210.448 408.543C208.731 404.784 209.008 400.428 208.995 396.391L208.969 380.726L208.984 345C209.428 344.962 209.849 344.685 210.25 344.494C211.388 343.078 211.081 340.993 211.11 339.253L211.47 326.571L217.098 259.424C222.019 255.251 229.663 252.211 235.492 249.3L265.534 234.336L299.466 217.369C307.212 213.495 315.504 208.318 323.899 206.205L326.368 190.928L332.465 162.114C333.779 161.094 337.798 145.247 338.794 142.288L344.455 127.343C352.661 107.885 363.421 87.6408 377.199 71.5148C377.44 91.9886 381.921 112.198 391.434 130.411Z"/>
	<path fill="#FAA04E" transform="scale(0.250466 0.250466)" d="M297.567 423.328L316.179 423.5L310.026 427.386L302.565 432.847C300.408 429.861 298.994 426.699 297.567 423.328Z"/>
	<path fill="#708094" transform="scale(0.250466 0.250466)" d="M370.031 244.123C373.089 244.812 377.224 246.335 380.334 246.007L395.043 261.717L389.44 266.03C382.063 259.872 374.425 252.8 370.031 244.123Z"/>
	<path fill="#708094" transform="scale(0.250466 0.250466)" d="M645.478 230.412C646.018 234.418 646.363 238.264 648.776 241.656C647.978 244.075 646.709 246.314 645.415 248.5C643.747 251.317 635.072 264.467 632.15 265.223L625.613 260.509C635.359 251.466 640.842 242.813 645.478 230.412Z"/>
	<path fill="#79A2B7" transform="scale(0.250466 0.250466)" d="M669.464 272.729C668.808 277.314 666.582 295.42 663.965 297.867L649.594 280.754C650.231 279.642 650.875 278.979 651.794 278.112C658.026 277.965 663.861 275.188 669.464 272.729Z"/>
	<path fill="#79A2B7" transform="scale(0.250466 0.250466)" d="M621.56 238.358C626.626 238.358 631.783 237.358 636.822 236.829L621.469 257.427L610.217 251.966L621.56 238.358Z"/>
	<path fill="#708094" transform="scale(0.250466 0.250466)" d="M651.024 245.062C651.451 247.07 651.686 248.788 651.25 250.819C650.719 253.291 648.974 256.966 649.75 259.285C651.075 259.315 652.177 258.647 653.122 257.75L654.959 255.5L656.028 254.156C655.375 261.888 654.918 270.93 651.794 278.112C650.875 278.979 650.231 279.642 649.594 280.754L637.728 269.842C643.572 262.111 647.253 253.907 651.024 245.062Z"/>
	<path fill="#79A2B7" transform="scale(0.250466 0.250466)" d="M381.013 235C386.944 236.385 392.656 237.594 398.803 237.08C402.19 242.395 406.325 247.381 410.669 251.94L400.446 257.982C393.163 251.109 386.402 243.45 381.013 235Z"/>
	<path fill="#79A2B7" transform="scale(0.250466 0.250466)" d="M353.419 249.384L353.601 249.877C355.979 256.619 356.631 264.084 358.33 271.038C358.943 273.549 359.53 276.544 361.75 278.061C363.881 277.997 364.266 278.2 365.775 276.552C369.985 271.953 371.596 261.22 372.485 255.185C375.795 260.787 379.9 265.684 384.212 270.529L359.536 295.863C358.209 291.295 357.498 286.557 356.599 281.89C354.71 272.075 352.008 259.349 353.419 249.384Z"/>
	<path fill="#83280C" transform="scale(0.250466 0.250466)" d="M749.386 655.708C748.451 660.442 744.018 666.367 741.691 670.688L711.277 726.488C706.662 727.278 701.818 727.002 697.154 726.939L675.815 726.559L696 713.516C711.704 702.75 726.441 689.649 737.842 674.346C742.199 668.498 745.368 661.788 749.386 655.708Z"/>
	<path fill="#E52B03" transform="scale(0.250466 0.250466)" d="M613.327 579.612C617.626 561.801 621.223 543.684 622.318 525.367C623.312 508.728 622.306 492.116 621.417 475.509L626.03 472.989C631.713 498.74 632.675 524.748 633.998 550.988L626.442 549.218C626.651 546.844 627.182 544.09 626.719 541.75C625.385 543.9 625.427 547.698 624.902 550.219C623.599 556.466 621.583 562.42 619.361 568.389C617.894 572.33 616.423 576.62 613.327 579.612Z"/>
	<path fill="#E52B03" transform="scale(0.250466 0.250466)" d="M576.68 228.599C580.216 230.976 586.26 232.993 590.5 233.547C596.821 234.374 602.557 230.95 607.455 227.396C613.576 222.954 618.635 217.007 622.865 210.759C625.638 206.665 628.279 202.317 630.629 197.966C633.344 192.937 636.078 184.143 641.089 181.303C632.994 204.691 621.543 229.909 604.803 248.475C595.582 244.223 586.184 240.15 576.452 237.207C570.144 235.3 563.65 234.094 557.224 232.658L565.086 227.555L576.68 228.599Z"/>
	<path fill="#F44E01" transform="scale(0.250466 0.250466)" d="M650.242 150.557C648.458 160.539 645.283 172.048 641.089 181.303C636.078 184.143 633.344 192.937 630.629 197.966C628.279 202.317 625.638 206.665 622.865 210.759C618.635 217.007 613.576 222.954 607.455 227.396C602.557 230.95 596.821 234.374 590.5 233.547C586.26 232.993 580.216 230.976 576.68 228.599C579.215 228.308 581.643 227.985 584.11 227.301L585 227.048C604.535 221.632 617.736 201.924 628.229 185.918L639.469 168.58L645.268 158.397C646.746 155.669 648.047 152.793 650.242 150.557Z"/>
	<path fill="#83280C" transform="scale(0.250466 0.250466)" d="M230.195 616.625L244.881 635.332C247.933 639.279 251.223 643.024 253.927 647.23C257.246 652.393 259.554 658.206 262.69 663.495C275.091 684.409 287.855 705.49 302.62 724.837L293.002 724.472C292.021 721.844 289.72 719.293 288.097 716.992L277.815 702.368L263.874 680.634C253.809 664.904 244.149 649.263 236.181 632.333C233.721 627.106 231.045 622.437 230.195 616.625Z"/>
	<path fill="#FEFEFE" transform="scale(0.250466 0.250466)" d="M556.299 510.524L557.94 511.593C548.728 520.077 536.876 527.411 525.378 532.328C521.081 534.165 516.26 536.086 511.549 536.448C508.08 536.714 504.448 535.114 501.276 533.855C487.939 528.562 476.269 520.639 465.463 511.339L467.1 510.861C474.138 516.695 479.722 520.282 489.304 519.512C494.3 519.111 498.9 516.507 503.17 514.124C505.172 513.007 509.124 510.512 511.477 510.683C514.775 510.924 518.843 513.779 521.706 515.287C534.026 521.774 546.274 520.457 556.299 510.524Z"/>
	<path fill="#90C5DE" transform="scale(0.250466 0.250466)" d="M655.585 422.09C653.833 423.075 650.294 423.115 648.278 423.401L633.724 425.731L633.999 425.342C635.277 424.141 637.407 423.066 638.909 422.124L649.107 415.896C664.148 407.046 679.269 398.395 696.63 395.044C699.967 394.4 703.375 394.473 706.742 393.953C714.419 401.081 721.387 408.235 727.287 416.962C721.876 414.964 716.332 412.576 710.552 411.966C697.842 410.625 684.765 414.428 672.435 417.111C667.469 418.192 661.78 418.948 657.139 420.999C656.508 421.277 656.066 421.602 655.585 422.09Z"/>
	<path fill="#E52B03" transform="scale(0.250466 0.250466)" d="M377.42 174.835C380.313 176.544 382.598 183.047 384.347 186.079C392.246 199.769 409.847 228.298 426.402 231.64C432.482 232.868 441.216 230.87 447.146 229.167L448.516 228.668L458.201 226.641L467.581 232.927C461.291 234.383 454.881 235.434 448.656 237.169C437.889 240.171 427.515 244.178 417.221 248.5C402.897 235.66 394.65 218.213 387.167 200.851C383.49 192.32 379.907 183.803 377.42 174.835Z"/>
	<path fill="#F44E01" transform="scale(0.250466 0.250466)" d="M512.164 830.507L578.614 829.992L531.838 860.494L521.75 867.026C518.523 869.224 515.269 872.142 511.358 872.983C512.639 867.472 511.964 861.141 511.996 855.5L512.164 830.507Z"/>
	<path fill="#FAA04E" transform="scale(0.250466 0.250466)" d="M511.358 872.983L444.536 830.16L512.164 830.507L511.996 855.5C511.964 861.141 512.639 867.472 511.358 872.983Z"/>
	<path fill="#FAA04E" transform="scale(0.250466 0.250466)" d="M271.771 664.794L295.354 684.485C313.916 698.808 335.275 710.766 357.623 718.029C363.264 719.863 368.981 721.551 374.768 722.857C379.227 723.864 383.661 724.419 388.021 725.82L310.703 724.764L271.771 664.794Z"/>
	<path fill="#FAA04E" transform="scale(0.250466 0.250466)" d="M565.086 227.555C599.07 202.724 627.775 171.463 644.852 132.612C648.704 123.85 651.076 114.612 654.473 105.693C656.704 108.926 658.197 112.452 659.634 116.087C658.692 126.424 655.904 135.311 652.658 145.097L650.242 150.557C648.047 152.793 646.746 155.669 645.268 158.397L639.469 168.58L628.229 185.918C617.736 201.924 604.535 221.632 585 227.048L584.11 227.301C581.643 227.985 579.215 228.308 576.68 228.599L565.086 227.555Z"/>
	<path fill="#FAA04E" transform="scale(0.250466 0.250466)" d="M380.131 284.38L382.541 281.729C406.286 257.39 438.881 245.698 471.363 238.715C485.126 235.757 498.613 233.405 512.719 233.354C523.373 233.316 533.626 235.013 544.084 236.88C579.889 243.272 614.308 256.41 640.508 282.402C638.235 283.037 637.315 282.378 635.347 281.263C630.623 278.584 626.313 275.118 621.637 272.322C612.086 266.611 600.975 261.661 590.417 258.11L536.092 244.257L526.297 242.995C516.15 241.355 504.583 241.681 494.5 243.398C493.015 243.651 491.521 243.623 490 243.902L481.589 245.128L474.529 246.602L462.089 249.432L454.488 251.415C449.811 252.407 445.014 254.336 440.5 255.919C420.738 262.85 402.455 271.896 384.661 282.894C383.188 283.805 381.906 285.022 380.131 284.38Z"/>
	<defs>
		<linearGradient id="gradient_2" gradientUnits="userSpaceOnUse" x1="626.98212" y1="471.57187" x2="613.75183" y2="447.68356">
			<stop offset="0" stop-color="#81A3BF"/>
			<stop offset="1" stop-color="#AFDDED"/>
		</linearGradient>
	</defs>
	<path fill="url(#gradient_2)" transform="scale(0.250466 0.250466)" d="M670.139 421.581C680.31 421.683 688.854 426.054 697.097 431.609C683.904 433.832 672.226 437.893 659.921 442.962C633.243 453.952 607.841 469.811 585.353 487.84L557.94 511.593L556.299 510.524C562.176 504 566.094 497.739 567.333 488.905C567.809 485.516 567.682 481.91 567.729 478.486C577.985 472.745 587.291 464.463 596.968 457.752C614.167 445.826 632.667 436.947 652.014 429.123C656.853 427.166 661.837 424.826 666.855 423.416C668.365 422.992 668.97 422.664 670.139 421.581Z"/>
	<path fill="#FEFEFE" transform="scale(0.250466 0.250466)" d="M353.419 249.384C352.183 236.634 352.445 224.502 353.49 211.75C355.001 193.317 358.269 173.82 367.105 157.36C374.569 185.61 382.364 212.494 398.803 237.08C392.656 237.594 386.944 236.385 381.013 235C377.674 230.717 375.731 224.957 372.25 221.076L371.574 221.5C370.984 229.478 376.505 239.265 380.334 246.007C377.224 246.335 373.089 244.812 370.031 244.123L369.1 243.153C369.134 246.971 371.486 251.445 372.485 255.185C371.596 261.22 369.985 271.953 365.775 276.552C364.266 278.2 363.881 277.997 361.75 278.061C359.53 276.544 358.943 273.549 358.33 271.038C356.631 264.084 355.979 256.619 353.601 249.877L353.419 249.384Z"/>
	<path fill="#FEFEFE" transform="scale(0.250466 0.250466)" d="M621.56 238.358C634.719 217.411 643.757 194.825 649.686 170.82L653.494 151.711C665.455 180.508 671.538 211.854 671.187 243.054L669.464 272.729C663.861 275.188 658.026 277.965 651.794 278.112C654.918 270.93 655.375 261.888 656.028 254.156L654.959 255.5L653.122 257.75C652.177 258.647 651.075 259.315 649.75 259.285C648.974 256.966 650.719 253.291 651.25 250.819C651.686 248.788 651.451 247.07 651.024 245.062C651.685 243.329 652.039 240.993 652.277 239.14C652.433 237.925 652.635 237.776 651.867 236.75C650.468 237.506 649.538 240.206 648.776 241.656C646.363 238.264 646.018 234.418 645.478 230.412L648.993 214.996L636.822 236.829C631.783 237.358 626.626 238.358 621.56 238.358Z"/>
	<path fill="#E52B03" transform="scale(0.250466 0.250466)" d="M659.634 116.087C665.153 125.11 668.914 134.606 672.548 144.5C687.66 185.643 693.257 230.195 689.415 273.856C687.839 291.755 683.88 309.13 680.179 326.671L668.002 302.701C678.702 273.154 680.062 243.688 675.482 212.738C672.537 192.836 667.248 173.585 658.68 155.345C657.628 153.105 654.948 146.168 652.743 145.119L652.658 145.097C655.904 135.311 658.692 126.424 659.634 116.087Z"/>
	<path fill="#E52B03" transform="scale(0.250466 0.250466)" d="M369.164 107.146L369.491 127.284C368.122 133.157 368.978 140.819 369.001 146.908L365.142 152.527C355.775 168.807 350.526 187.471 347.912 205.978C345.48 223.194 344.81 241.42 346.505 258.75C347.922 273.237 351.132 287.747 354.901 301.79L343.643 320.045L337.309 297.994C328.068 251.799 331.839 203.32 345.91 158.5C351.458 140.828 358.881 122.627 369.164 107.146Z"/>
	<path fill="#FAA04E" transform="scale(0.250466 0.250466)" d="M369.164 107.146L369.932 107.5C374.192 120.335 378.54 132.457 384.946 144.457C390.432 154.733 397.275 163.931 404.384 173.112C420.174 193.502 437.263 211.494 458.201 226.641L448.516 228.668L447.146 229.167C441.216 230.87 432.482 232.868 426.402 231.64C409.847 228.298 392.246 199.769 384.347 186.079C382.598 183.047 380.313 176.544 377.42 174.835L369.001 146.908C368.978 140.819 368.122 133.157 369.491 127.284L369.164 107.146Z"/>
	<path fill="#F44E01" transform="scale(0.250466 0.250466)" d="M369.491 127.284C371.274 133.728 372.866 140.184 375.239 146.449C387.113 177.795 410.035 207.605 439.62 224.036L448.516 228.668L447.146 229.167C441.216 230.87 432.482 232.868 426.402 231.64C409.847 228.298 392.246 199.769 384.347 186.079C382.598 183.047 380.313 176.544 377.42 174.835L369.001 146.908C368.978 140.819 368.122 133.157 369.491 127.284Z"/>
	<path fill="#90C5DE" transform="scale(0.250466 0.250466)" d="M313.517 402.833C334.813 404.035 355.416 411.435 375.312 418.64C380.663 420.578 386.411 422.134 391.412 424.869C380.889 423.445 370.913 423.808 360.442 425.452C365.826 426.745 370.836 428.971 375.876 431.217C386.268 435.848 395.979 441.333 405.634 447.349C416.086 453.862 426.661 460.643 436.04 468.649C443.032 473.424 448.489 478.638 456.661 481.479L456.683 490.557C458.562 498.783 461.533 504.554 467.1 510.861L465.463 511.339C461.43 509.11 458.172 504.934 454.761 501.835L435.772 485.798C408.482 464.501 378.281 446.654 344.726 437.306C336.879 435.119 328.852 434.122 320.949 432.24C331.045 425.412 343.959 422.746 355.685 420.305C338.586 415.978 321.66 413.048 304.007 412.467L308.084 406.934C310.203 405.875 311.772 404.398 313.517 402.833Z"/>
	<path fill="#A7D8F0" transform="scale(0.250466 0.250466)" d="M436.04 468.649C443.032 473.424 448.489 478.638 456.661 481.479L456.683 490.557L456.288 490.33C452.137 487.807 448.604 482.815 445.101 479.335C442.588 476.839 439.627 474.668 437.48 471.827C436.668 470.753 436.358 469.941 436.04 468.649Z"/>
	<path fill="#F47E2E" transform="scale(0.250466 0.250466)" d="M307.705 443.311C334.109 446.178 360.631 454.985 384.244 467.002L372.373 517.894L370.268 530.196C365.145 526.037 360.763 520.752 356.409 515.82C336.803 493.612 322.052 469.067 307.705 443.311Z"/>
	<defs>
		<linearGradient id="gradient_3" gradientUnits="userSpaceOnUse" x1="469.77756" y1="574.328" x2="368.0123" y2="647.7821">
			<stop offset="0" stop-color="#E50500"/>
			<stop offset="1" stop-color="#BC110D"/>
		</linearGradient>
	</defs>
	<path fill="url(#gradient_3)" transform="scale(0.250466 0.250466)" d="M476.8 726.973L424.41 726.812C420.249 721.931 416.996 716.851 413.893 711.241C390.333 668.646 376.828 619.743 379.196 570.865C380.164 550.888 383.617 531.368 387.596 511.811L391.865 490.569C392.8 485.515 393.41 480.156 394.985 475.25C395.445 473.819 395.653 472.734 397 472.029L398.21 473.25C398.953 475.677 399.19 478.966 398.739 481.477L398.554 482.381C398.25 482.649 397.127 483.448 397 483.75C396.496 484.95 396.353 486.969 396.099 488.286L393.855 501.869C391.656 515.55 388.74 528.876 387.858 542.76C384.865 589.868 394.545 653.124 426.963 689.646C434.126 697.716 442.395 704.379 451.336 710.362L465.577 718.96C469.596 721.237 474.001 723.167 476.8 726.973Z"/>
	<path fill="#FEFEFE" transform="scale(0.250466 0.250466)" d="M652.964 830.82L653.674 830.751C659.723 830.194 666.708 830.084 672.735 830.86C659.542 842.469 644.53 853.072 630 862.95C601.151 882.565 571.648 900.158 540.782 916.413L523.972 924.969C519.89 927.045 515.799 929.415 511.42 930.788L463.429 906.895C438.882 893.361 415.284 877.984 392.291 861.987C378.659 852.503 364.683 843.049 352.724 831.467L370.583 831.24C372.894 832.025 375.52 834.959 377.453 836.506L391.674 847.289C429.816 874.695 469.941 898.149 511.983 919.013C514.584 918.367 517.347 916.531 519.755 915.298L536.05 906.755C558.493 894.477 580.888 881.862 602.245 867.75L652.964 830.82Z"/>
	<path fill="#F47E2E" transform="scale(0.250466 0.250466)" d="M380.131 284.38C381.906 285.022 383.188 283.805 384.661 282.894C402.455 271.896 420.738 262.85 440.5 255.919C445.014 254.336 449.811 252.407 454.488 251.415L462.089 249.432L474.529 246.602L481.589 245.128L490 243.902C491.521 243.623 493.015 243.651 494.5 243.398C504.583 241.681 516.15 241.355 526.297 242.995L536.092 244.257L590.417 258.11C600.975 261.661 612.086 266.611 621.637 272.322C626.313 275.118 630.623 278.584 635.347 281.263C637.315 282.378 638.235 283.037 640.508 282.402C648.182 289.166 655.38 297.754 659.934 306.933C658.026 307.489 658.062 307.382 656.344 306.452C651.18 303.656 646.735 299.65 641.75 296.548C635.479 292.647 628.523 289.357 621.881 286.134C567.307 259.657 504.46 254.636 446 270.523L434.9 273.843L399.255 287.104C389.127 291.201 379.254 294.934 370.557 301.712C367.7 303.939 364.78 306.425 362.91 309.572C360.988 312.196 358.453 316.375 355.164 317.325C357.506 312.276 360.792 307.897 364.008 303.381C368.887 296.53 373.792 289.962 380.131 284.38Z"/>
	<path fill="#FAA04E" transform="scale(0.250466 0.250466)" d="M409.761 159.365L511.075 107.492C510.369 117.584 510.955 127.357 510.99 137.43L511.026 190.896L510.992 206.707C510.977 210.411 511.161 214.64 510.112 218.222C498.949 218.475 488.398 219.525 477.432 221.754C465.369 214.343 453.999 206.596 443.398 197.158C430.876 186.011 419.782 172.782 409.761 159.365Z"/>
	<path fill="#F44E01" transform="scale(0.250466 0.250466)" d="M511.075 107.492C515.723 108.718 519.991 111.336 524.249 113.533L543.109 123.13L615.496 159.01C596.331 184.348 574.413 205.53 546.919 221.716L510.112 218.222C511.161 214.64 510.977 210.411 510.992 206.707L511.026 190.896L510.99 137.43C510.955 127.357 510.369 117.584 511.075 107.492Z"/>
	<path fill="#FEFEFE" transform="scale(0.250466 0.250466)" d="M699.168 205.523L697.067 189.998L818.331 248.768L822.649 333.961L873.392 357.442C873.233 383.667 872.833 409.861 870.483 436C862.953 519.776 838.8 602.81 799.25 677.093L769.373 727.028L754.711 727.023C770.86 704.346 786.327 679.923 798.832 655.027C805.323 642.106 810.592 628.597 815.97 615.19C834.136 569.902 847.172 522.038 854.25 473.755C859.469 438.152 861.588 402.361 862.596 366.422L830.899 350.706L819.505 345.285L810.738 340.871C810.216 339.561 810.476 337.592 810.487 336.163L810.543 327.221L810.444 292.236C810.069 280.478 809.494 268.233 807.266 256.692C802.9 253.663 797.99 251.744 793.211 249.474L771.381 239.043C747.574 227.665 723.745 215.149 699.168 205.523Z"/>
	<path fill="#13142A" transform="scale(0.250466 0.250466)" d="M391.434 130.411C399.053 127.494 406.271 123.543 413.51 119.807L434.666 109.103L511.312 69.6619L631.611 131.466C628.345 137.32 625.423 144.501 621.359 149.747L615.496 159.01L543.109 123.13L524.249 113.533C519.991 111.336 515.723 108.718 511.075 107.492L409.761 159.365L402.679 148.779L401.883 148.42C400.98 147.873 399.951 146.112 399.289 145.223C395.775 140.505 393.3 135.986 391.434 130.411Z"/>
	<path fill="#FEFEFE" transform="scale(0.250466 0.250466)" d="M402.679 148.779L510.998 93.2625L621.359 149.747L615.496 159.01L543.109 123.13L524.249 113.533C519.991 111.336 515.723 108.718 511.075 107.492L409.761 159.365L402.679 148.779Z"/>
	<path fill="#83280C" transform="scale(0.250466 0.250466)" d="M370.583 831.24C376.966 830.228 383.425 830.506 389.867 830.503L419.25 830.5L427.376 830.329C428.124 830.307 429.514 830.057 430.155 830.237C431.505 830.616 433.238 831.942 434.458 832.694L444.5 839.001L496.659 872.244C498.403 873.346 510.299 881.191 511.783 881.117C511.976 881.107 513.474 880.021 513.732 879.854L520.795 875.442L579.487 838.267L587.034 832.984C587.779 832.42 589.458 830.773 590.256 830.509C590.811 830.325 592.533 830.51 593.19 830.51L602.035 830.516L634.001 830.573C640.294 830.593 646.686 830.381 652.964 830.82L602.245 867.75C580.888 881.862 558.493 894.477 536.05 906.755L519.755 915.298C517.347 916.531 514.584 918.367 511.983 919.013C469.941 898.149 429.816 874.695 391.674 847.289L377.453 836.506C375.52 834.959 372.894 832.025 370.583 831.24Z"/>
	<path fill="#90C5DE" transform="scale(0.250466 0.250466)" d="M367.49 601.639C371.018 633.824 378.108 664.782 392.294 694.047C396.08 701.857 400.564 709.268 404.808 716.829C381.403 710.884 358.911 703.723 337.252 692.861C302.713 675.541 272.186 648.233 249.337 617.252C233.232 595.417 220.85 569.328 214.779 542.864C208.234 514.331 208.07 484.845 212.468 456.002L214.864 470.203C217.925 485.977 222.275 501.303 227.074 516.618C227.942 519.391 229.32 527.101 231.65 528.68L232.063 529.324C234.686 533.572 235.799 540.018 237.387 544.807C239.223 550.344 241.542 555.783 244.196 560.974C256.891 585.809 276.254 605.703 299.599 620.826C311.523 628.551 323.966 634.696 336.602 641.099C331.164 635.163 326.421 628.658 321.49 622.301C312.368 610.542 302.666 598.242 296.151 584.833C302.589 591.354 308.44 598.365 315.198 604.585C331.203 619.317 349.583 630.394 368.268 641.299C360.282 619.77 349.687 599.257 338.25 579.383L320.915 549.713C326.199 554.751 330.182 561.671 334.845 567.341C344.941 579.62 355.614 591.046 367.49 601.639Z"/>
	<path fill="#F47E2E" transform="scale(0.250466 0.250466)" d="M208.984 345C209.428 344.962 209.849 344.685 210.25 344.494C211.388 343.078 211.081 340.993 211.11 339.253L211.47 326.571L217.098 259.424C222.019 255.251 229.663 252.211 235.492 249.3L265.534 234.336L299.466 217.369C307.212 213.495 315.504 208.318 323.899 206.205C321.255 229.975 320.352 253.787 323.114 277.597C324.665 290.975 327.604 304.702 330.729 317.826L333.175 327.121C333.281 327.505 334.007 329.521 333.929 329.826C333.558 331.284 331.936 333.51 331.189 334.888L322.369 350.899L291.318 406.477C288.284 383.791 286.338 361.386 287.631 338.457C288.687 319.74 291.995 301.371 296.932 283.309C299.386 274.331 303.775 265.907 306.178 256.991C294.263 269.94 282.193 282.921 271.281 296.734C253.213 319.605 237.214 344.949 224.998 371.438C219.425 383.52 214.902 396.017 210.448 408.543C208.731 404.784 209.008 400.428 208.995 396.391L208.969 380.726L208.984 345Z"/>
	<path fill="#83280C" transform="scale(0.250466 0.250466)" d="M810.738 340.871L819.505 345.285L830.899 350.706L862.596 366.422C861.588 402.361 859.469 438.152 854.25 473.755C847.172 522.038 834.136 569.902 815.97 615.19C810.592 628.597 805.323 642.106 798.832 655.027C786.327 679.923 770.86 704.346 754.711 727.023L729.709 726.867L711.277 726.488L741.691 670.688C744.018 666.367 748.451 660.442 749.386 655.708C749.817 652.828 752.818 648.421 754.315 645.778C756.991 639.128 760.051 632.478 762.269 625.67C767.177 610.6 769.164 595.452 768.864 579.632C768.474 576.149 768.914 573.116 769.839 569.742C772.985 558.266 778.074 547.316 781.75 535.994C787.365 518.701 791.517 501.017 795.363 483.264C805.511 436.412 807.967 388.575 810.738 340.871Z"/>
	<path fill="#3F0300" transform="scale(0.250466 0.250466)" d="M810.738 340.871L819.505 345.285L830.899 350.706C832.053 356.533 831.861 363.044 831.924 368.974L830.733 410.1L825.343 467.529C820.257 503.827 811.77 539.464 800.671 574.372C787.095 617.07 768.644 659.062 743.695 696.415L721.351 726.572L729.709 726.867L711.277 726.488L741.691 670.688C744.018 666.367 748.451 660.442 749.386 655.708C749.817 652.828 752.818 648.421 754.315 645.778C756.991 639.128 760.051 632.478 762.269 625.67C767.177 610.6 769.164 595.452 768.864 579.632C768.474 576.149 768.914 573.116 769.839 569.742C772.985 558.266 778.074 547.316 781.75 535.994C787.365 518.701 791.517 501.017 795.363 483.264C805.511 436.412 807.967 388.575 810.738 340.871Z"/>
	<path fill="#F47E2E" transform="scale(0.250466 0.250466)" d="M810.738 340.871L819.505 345.285L819.386 392.418C817.296 442.553 808.833 493.513 794.75 541.66C788.514 562.981 780.814 584.023 772.624 604.665L762.174 630.138C760.159 635.019 758.303 641.234 755.116 645.45L754.315 645.778C756.991 639.128 760.051 632.478 762.269 625.67C767.177 610.6 769.164 595.452 768.864 579.632C768.474 576.149 768.914 573.116 769.839 569.742C772.985 558.266 778.074 547.316 781.75 535.994C787.365 518.701 791.517 501.017 795.363 483.264C805.511 436.412 807.967 388.575 810.738 340.871Z"/>
	<path fill="#FEFEFE" transform="scale(0.250466 0.250466)" d="M231.65 528.68C223.16 495.815 218.717 462.139 223.797 428.336C225.844 414.716 229.482 401.737 233.98 388.745C237.467 378.674 241.5 367.454 246.668 358.124C244.282 370.476 241.692 382.808 240.141 395.305C237.097 419.822 236.759 444.187 239.374 468.763C239.891 473.62 240.459 478.571 241.449 483.356C241.831 485.206 241.943 487.025 242.776 488.75L242.644 487.959C240.947 477.349 240.547 466.122 240.5 455.391C240.357 422.964 245.775 390.491 255.563 359.594C261.723 340.145 269.827 320.806 281.564 304.018C277.764 320.209 274.783 336.116 273.692 352.734C271.273 389.589 276.444 427.795 287.401 463.01C292.87 480.586 300.069 498.398 309.649 514.159L310.871 516.033C304.722 497.035 298.739 478.097 294.826 458.484C293.842 453.553 292.385 447.825 292.425 442.823C303.212 465.75 314.661 487.114 330.209 507.236C337.925 517.221 346.382 526.989 355.25 535.966L364.827 545.148C365.693 545.943 367.849 547.58 368.278 548.574C368.57 549.252 366.881 567.206 366.774 569.425C366.257 580.12 367.468 590.931 367.49 601.639C355.614 591.046 344.941 579.62 334.845 567.341C330.182 561.671 326.199 554.751 320.915 549.713L338.25 579.383C349.687 599.257 360.282 619.77 368.268 641.299C349.583 630.394 331.203 619.317 315.198 604.585C308.44 598.365 302.589 591.354 296.151 584.833C302.666 598.242 312.368 610.542 321.49 622.301C326.421 628.658 331.164 635.163 336.602 641.099C323.966 634.696 311.523 628.551 299.599 620.826C276.254 605.703 256.891 585.809 244.196 560.974C241.542 555.783 239.223 550.344 237.387 544.807C235.799 540.018 234.686 533.572 232.063 529.324L231.65 528.68Z"/>
	<path fill="#90C5DE" transform="scale(0.250466 0.250466)" d="M409.228 535.452C405.001 516.281 405.555 495.968 404.296 476.434C413.228 480.813 422.583 486.446 430.139 492.984C446.522 504.444 461.092 518.417 477.75 529.439C488.217 536.365 499.63 541.32 511.47 545.341C533.082 539.132 550.591 527.018 567.683 512.798C574.312 507.283 580.537 501.619 587.648 496.697L616.516 478.002C618.274 489.7 618.004 501.079 617.932 512.872C617.909 516.629 618.475 522.103 617.169 525.599C614.899 552.77 609.176 579.878 598.25 604.953C588.012 628.449 573.557 649.779 557.116 669.339C549.902 677.921 542.847 687.18 534.212 694.408L533.579 694.902C531.411 697.59 528.515 699.894 525.966 702.226L512.328 714.713C504.128 708.853 496.975 701.044 490.327 693.499C488.136 691.983 486.474 689.678 484.744 687.67L475.135 676.478C440.643 636.028 418.934 587.551 409.228 535.452Z"/>
	<path fill="#79A2B7" transform="scale(0.250466 0.250466)" d="M409.228 535.452C405.001 516.281 405.555 495.968 404.296 476.434C413.228 480.813 422.583 486.446 430.139 492.984L429.844 493.729C428.772 496.629 428.983 500.989 428.843 504.094C428.073 521.244 429.1 537.818 431.204 554.851L420.498 545.459C416.863 542.094 413.857 537.405 409.228 535.452Z"/>
	<path fill="#79A2B7" transform="scale(0.250466 0.250466)" d="M587.648 496.697L616.516 478.002C618.274 489.7 618.004 501.079 617.932 512.872C617.909 516.629 618.475 522.103 617.169 525.599C613.683 526.117 606.749 535.235 604.25 537.936L592.148 550.532L591.549 527.202C590.955 516.976 589.308 506.793 587.648 496.697Z"/>
	<path fill="#FEFEFE" transform="scale(0.250466 0.250466)" d="M490.327 693.499L490.027 692.577C489.008 689.666 486.262 686.961 484.594 684.345L471.911 663.122C455.96 635.422 443.821 606.17 435.394 575.349C433.819 569.59 431.19 561.375 431.463 555.5C439.23 560.287 446.402 566.066 454.29 570.659C474.387 582.361 501.7 590.428 525 585.625C533.644 583.843 541.951 581.619 550.106 578.173C565.68 571.593 579.409 561.57 592.234 550.728C588.511 586.561 574.745 621.731 558.505 653.656C552.768 664.933 545.778 675.638 539.091 686.372C537.365 689.143 533.947 691.642 533.579 694.902C531.411 697.59 528.515 699.894 525.966 702.226L512.328 714.713C504.128 708.853 496.975 701.044 490.327 693.499Z"/>
	<path fill="#F44E01" transform="scale(0.250466 0.250466)" d="M476.8 726.973C474.001 723.167 469.596 721.237 465.577 718.96L451.336 710.362C442.395 704.379 434.126 697.716 426.963 689.646C394.545 653.124 384.865 589.868 387.858 542.76C388.74 528.876 391.656 515.55 393.855 501.869L396.099 488.286C396.353 486.969 396.496 484.95 397 483.75C397.127 483.448 398.25 482.649 398.554 482.381L402.328 523.202C402.921 530.12 403.162 537.266 404.659 544.059L411.538 570.413C425.864 616.282 450.117 658.256 484.082 692.407L502.003 708.916C504.593 711.093 507.461 713.867 510.414 715.535C510.922 715.822 511.097 715.85 511.593 715.997C524.057 708.75 534.586 699.83 544.906 689.809C566.419 668.919 584.697 643.753 598.071 616.906C604.022 604.961 608.661 592.117 613.327 579.612C616.423 576.62 617.894 572.33 619.361 568.389C621.583 562.42 623.599 556.466 624.902 550.219C625.427 547.698 625.385 543.9 626.719 541.75C627.182 544.09 626.651 546.844 626.442 549.218L633.998 550.988C635.314 564.177 636.99 578.26 641.601 590.752C639.679 568.819 640.483 546.833 644.799 525.253C646.353 528.066 647.478 531.105 648.695 534.076C655.693 547.812 665.2 562.697 678.68 570.97C684.331 574.438 690.827 576.951 697.114 578.99C710.292 583.265 724.094 584.55 737.832 585.604C736.788 587.003 735.815 588.487 734.539 589.681C729.12 596.259 722.413 601.871 715.25 606.463C711.483 608.877 707.374 610.921 703.833 613.658C715.837 616.256 729.732 616.338 741.5 612.528C745.411 611.262 749.022 609.222 753 608.17L753.666 608.75L752.748 611.368C749.485 621.446 745.281 630.738 740.545 640.191C730.533 660.472 716.847 679.887 699.651 694.72C689.586 703.402 678.487 710.424 666.881 716.835C660.667 720.268 653.931 724.532 647.243 726.861C645.343 727.523 643.341 727.736 641.341 727.797C637.066 727.928 632.727 727.526 628.447 727.447L602.804 727.132L532.201 726.984L476.8 726.973Z"/>
	<path fill="#FAA04E" transform="scale(0.250466 0.250466)" d="M703.833 613.658C715.837 616.256 729.732 616.338 741.5 612.528C745.411 611.262 749.022 609.222 753 608.17L753.666 608.75L752.748 611.368C744.995 614.951 737.459 620.091 729.5 622.979C714.546 628.404 696.34 629.024 680.555 629.022C676.359 629.022 671.888 629.308 667.749 628.636C674.008 627.651 679.754 626.487 685.646 624.059C692.098 621.4 697.997 617.435 703.833 613.658Z"/>
	<path fill="#FAA04E" transform="scale(0.250466 0.250466)" d="M648.695 534.076C655.693 547.812 665.2 562.697 678.68 570.97C684.331 574.438 690.827 576.951 697.114 578.99C710.292 583.265 724.094 584.55 737.832 585.604C736.788 587.003 735.815 588.487 734.539 589.681C716.674 593.964 700.929 599.951 683 591.396C666.565 583.554 657.473 570.406 651.56 553.542C649.928 548.888 646.465 538.687 648.695 534.076Z"/>
	<path fill="#FAA04E" transform="scale(0.250466 0.250466)" d="M613.327 579.612C616.423 576.62 617.894 572.33 619.361 568.389C621.583 562.42 623.599 556.466 624.902 550.219C625.427 547.698 625.385 543.9 626.719 541.75C627.182 544.09 626.651 546.844 626.442 549.218C624.551 558.637 621.774 567.624 618.977 576.805C615.755 587.382 612.48 597.88 608.291 608.123C602.58 622.084 594.598 635.3 586.322 647.872C569.127 673.99 549.42 698.41 523.382 716.165C519.845 718.577 515.788 722.111 511.942 723.727L505.349 719.638C485.453 706.753 470.062 688.276 456.233 669.315C434.647 639.717 414.629 604.889 406.851 568.75C405.531 562.619 404.342 556.483 403.937 550.213C403.798 548.068 403.444 545.933 404.659 544.059L411.538 570.413C425.864 616.282 450.117 658.256 484.082 692.407L502.003 708.916C504.593 711.093 507.461 713.867 510.414 715.535C510.922 715.822 511.097 715.85 511.593 715.997C524.057 708.75 534.586 699.83 544.906 689.809C566.419 668.919 584.697 643.753 598.071 616.906C604.022 604.961 608.661 592.117 613.327 579.612Z"/>
	<path fill="#E52B03" transform="scale(0.250466 0.250466)" d="M532.201 726.984C549.837 710.585 572.05 700.261 589.235 683.09C593.877 678.452 597.727 673.375 601.443 667.98C603.32 665.257 604.843 662.369 606.96 659.817C604.996 665.523 602.165 670.93 599.334 676.25C592.408 689.27 583.61 701.893 573.622 712.754C585.785 708.478 598.663 706.179 610.983 702.285C628.387 696.783 645.437 689.448 661.627 681.071C683.405 669.804 703.448 656.685 720.968 639.443C707.079 643.051 693.712 643.301 679.5 642.687C676.075 642.539 672.37 642.891 669.098 641.804C670.326 640.72 672.682 640.531 674.292 640.143L687.75 636.946L709.632 630.478L734.799 624.56L729.902 631.707C732.439 634.839 735.987 638.084 739.695 639.814L740.545 640.191C730.533 660.472 716.847 679.887 699.651 694.72C689.586 703.402 678.487 710.424 666.881 716.835C660.667 720.268 653.931 724.532 647.243 726.861C645.343 727.523 643.341 727.736 641.341 727.797C637.066 727.928 632.727 727.526 628.447 727.447L602.804 727.132L532.201 726.984Z"/>
	<path fill="#FEFEFE" transform="scale(0.250466 0.250466)" d="M561.765 385.001C567.197 376.332 572.593 367.755 579.769 360.387C592.869 346.937 612.054 339.494 629.407 333.324C637.13 330.578 645.198 328.327 652.638 324.893C647.885 330.496 643.281 335.621 637.729 340.467C636.942 341.154 635.113 342.368 634.59 343.189C634.437 343.429 634.383 345.097 634.349 345.414L633.401 353.892C643.658 356.181 653.195 359.316 662.698 363.84C667.603 366.174 672.465 369.168 677.54 371.068C687.767 378.04 698.076 385.039 706.742 393.953C703.375 394.473 699.967 394.4 696.63 395.044C679.269 398.395 664.148 407.046 649.107 415.896L638.909 422.124C637.407 423.066 635.277 424.141 633.999 425.342L633.724 425.731L648.278 423.401C650.294 423.115 653.833 423.075 655.585 422.09L658 421.848C662.065 421.389 666.06 421.504 670.139 421.581C668.97 422.664 668.365 422.992 666.855 423.416C661.837 424.826 656.853 427.166 652.014 429.123C632.667 436.947 614.167 445.826 596.968 457.752C587.291 464.463 577.985 472.745 567.729 478.486C567.682 481.91 567.809 485.516 567.333 488.905C566.094 497.739 562.176 504 556.299 510.524C546.274 520.457 534.026 521.774 521.706 515.287C518.843 513.779 514.775 510.924 511.477 510.683C509.124 510.512 505.172 513.007 503.17 514.124C498.9 516.507 494.3 519.111 489.304 519.512C479.722 520.282 474.138 516.695 467.1 510.861C461.533 504.554 458.562 498.783 456.683 490.557L456.661 481.479C448.489 478.638 443.032 473.424 436.04 468.649C426.661 460.643 416.086 453.862 405.634 447.349C395.979 441.333 386.268 435.848 375.876 431.217C370.836 428.971 365.826 426.745 360.442 425.452C370.913 423.808 380.889 423.445 391.412 424.869C386.411 422.134 380.663 420.578 375.312 418.64C355.416 411.435 334.813 404.035 313.517 402.833C311.772 404.398 310.203 405.875 308.084 406.934C310.51 400.027 314.598 393.238 318.065 386.777C321.56 380.262 324.763 373.392 329.167 367.432C331.834 366.254 333.424 362.793 335.609 360.75C347.636 349.507 361.663 339.765 377.591 335.206L365.598 326.14C397.789 333.001 435.746 343.498 454.981 372.75L464.008 387.533C472.288 405.872 479.107 423.949 484.025 443.5C485.692 450.127 486.263 457.02 488.037 463.58L488.571 464.75C489.733 464.981 494.909 460.951 496.562 460.143C498.921 458.991 501.66 458.115 504.25 457.635C516.607 455.344 525.584 458.427 535.662 465.502L536.943 459.361C539.261 450.93 540.354 442.129 542.737 433.661C547.515 416.676 554.735 401.111 561.765 385.001Z"/>
	<path transform="scale(0.250466 0.250466)" d="M456.661 481.479C457.673 475.267 458.825 468.986 462.295 463.605C461.544 469.133 460.858 474.758 461.067 480.345C461.422 489.842 464.112 499.439 471.321 506.106C478.448 512.698 487.022 515.533 496.244 511.431C499.266 510.087 502.023 508.046 504.885 506.39C507.121 505.097 509.709 503.443 512.414 503.697C514.643 503.907 516.78 505.488 518.662 506.616C524.338 510.017 530.239 513.327 537.096 512.951C544.046 512.571 550.023 508.533 554.512 503.433C565.116 491.385 563.551 476.575 562.689 461.851C565.14 467.334 566.67 472.577 567.729 478.486C567.682 481.91 567.809 485.516 567.333 488.905C566.094 497.739 562.176 504 556.299 510.524C546.274 520.457 534.026 521.774 521.706 515.287C518.843 513.779 514.775 510.924 511.477 510.683C509.124 510.512 505.172 513.007 503.17 514.124C498.9 516.507 494.3 519.111 489.304 519.512C479.722 520.282 474.138 516.695 467.1 510.861C461.533 504.554 458.562 498.783 456.683 490.557L456.661 481.479Z"/>
	<path fill="#F47E2E" transform="scale(0.250466 0.250466)" d="M377.591 335.206L388.174 343.309L388.723 351.926C358.127 357.681 332.965 379.546 313.517 402.833C311.772 404.398 310.203 405.875 308.084 406.934C310.51 400.027 314.598 393.238 318.065 386.777C321.56 380.262 324.763 373.392 329.167 367.432C331.834 366.254 333.424 362.793 335.609 360.75C347.636 349.507 361.663 339.765 377.591 335.206Z"/>
	<path transform="scale(0.250466 0.250466)" d="M561.765 385.001C567.197 376.332 572.593 367.755 579.769 360.387C592.869 346.937 612.054 339.494 629.407 333.324C637.13 330.578 645.198 328.327 652.638 324.893C647.885 330.496 643.281 335.621 637.729 340.467C636.942 341.154 635.113 342.368 634.59 343.189C634.437 343.429 634.383 345.097 634.349 345.414L633.401 353.892C632.212 362.481 629.499 370.041 626.028 377.93C634.079 381.488 642.314 385.337 649.562 390.357C644.181 390.2 639.35 389.265 633.829 389.771C618.85 391.145 604.72 396.537 590.256 400.252L559.173 406.752C556.751 410.447 554.956 414.536 553.058 418.519C547.675 429.819 543.5 441.697 540.33 453.801C539.017 458.815 537.651 463.054 537.445 468.25C537.086 477.339 527.654 486.633 520.558 491.515C517.876 493.36 514.941 494.61 512.452 496.75L512.369 498.934L511.5 499.152C509.58 498.017 511.183 497.179 509.5 495.985C507.478 494.551 505.086 493.538 503.014 492.116C497.443 488.294 491.536 482.437 488.52 476.298C486.451 472.086 486.94 468.484 486.248 464.068C485.627 460.104 484.583 456.131 483.552 452.257C479.345 436.445 473.128 421.66 465.98 406.985C459.083 405.545 451.96 404.644 445.163 402.829C429.354 398.607 413.826 392.943 397.666 390.143C390.579 388.915 383.375 388.577 376.197 388.477C382.761 384.049 388.554 380.528 395.91 377.532L388.723 351.926L388.174 343.309L377.591 335.206L365.598 326.14C397.789 333.001 435.746 343.498 454.981 372.75L464.008 387.533C472.288 405.872 479.107 423.949 484.025 443.5C485.692 450.127 486.263 457.02 488.037 463.58L488.571 464.75C489.733 464.981 494.909 460.951 496.562 460.143C498.921 458.991 501.66 458.115 504.25 457.635C516.607 455.344 525.584 458.427 535.662 465.502L536.943 459.361C539.261 450.93 540.354 442.129 542.737 433.661C547.515 416.676 554.735 401.111 561.765 385.001Z"/>
	<path fill="#FEFEFE" transform="scale(0.250466 0.250466)" d="M626.653 345.58L627.576 346L627.592 346.848C627.596 350.025 626.601 353.688 625.777 356.75C623.103 366.693 618.58 375.779 611.257 383.138C598.526 395.931 582.078 397.251 565.008 397.255L564 397.174L563.464 396.5L569.056 385.5C577.25 371.913 589.346 360.082 603.695 353.196C610.901 349.737 618.931 347.547 626.653 345.58Z"/>
	<path fill="#FEFEFE" transform="scale(0.250466 0.250466)" d="M394.567 343.791L406.518 347.039C419.172 351.272 432.575 358.955 441.856 368.649C450.223 377.389 456.15 387.766 461.515 398.528C447.371 397.727 431.77 396.547 419.443 388.887C403.199 378.794 398.708 361.232 394.567 343.791Z"/>
	<path fill="#F44E01" transform="scale(0.250466 0.250466)" d="M362.91 309.572C364.78 306.425 367.7 303.939 370.557 301.712C379.254 294.934 389.127 291.201 399.255 287.104L434.9 273.843L446 270.523C504.46 254.636 567.307 259.657 621.881 286.134C628.523 289.357 635.479 292.647 641.75 296.548C646.735 299.65 651.18 303.656 656.344 306.452C658.062 307.382 658.026 307.489 659.934 306.933C665.207 315.698 668.561 325.358 673.75 334.086L704.944 381.787L689.793 375.042C685.96 373.359 681.798 371.19 677.54 371.068C672.465 369.168 667.603 366.174 662.698 363.84C653.195 359.316 643.658 356.181 633.401 353.892L634.349 345.414C634.383 345.097 634.437 343.429 634.59 343.189C635.113 342.368 636.942 341.154 637.729 340.467C643.281 335.621 647.885 330.496 652.638 324.893C645.198 328.327 637.13 330.578 629.407 333.324C612.054 339.494 592.869 346.937 579.769 360.387C572.593 367.755 567.197 376.332 561.765 385.001C554.735 401.111 547.515 416.676 542.737 433.661C540.354 442.129 539.261 450.93 536.943 459.361L535.662 465.502C525.584 458.427 516.607 455.344 504.25 457.635C501.66 458.115 498.921 458.991 496.562 460.143C494.909 460.951 489.733 464.981 488.571 464.75L488.037 463.58C486.263 457.02 485.692 450.127 484.025 443.5C479.107 423.949 472.288 405.872 464.008 387.533L454.981 372.75C435.746 343.498 397.789 333.001 365.598 326.14L377.591 335.206C361.663 339.765 347.636 349.507 335.609 360.75C333.424 362.793 331.834 366.254 329.167 367.432C332.939 358.096 338.998 349.006 343.77 340.086C347.065 332.108 350.512 324.611 355.164 317.325C358.453 316.375 360.988 312.196 362.91 309.572Z"/>
	<path fill="#E52B03" transform="scale(0.250466 0.250466)" d="M362.91 309.572C362.679 311.755 361.33 313.38 360.258 315.235L352.788 327.653C350.832 330.99 348.691 336.472 345.75 338.913C345.144 339.416 344.471 339.738 343.77 340.086C347.065 332.108 350.512 324.611 355.164 317.325C358.453 316.375 360.988 312.196 362.91 309.572Z"/>
	<path fill="#FEFEFE" transform="scale(0.250466 0.250466)" d="M601.08 300.498L601.587 300.64C601.436 301.741 599.474 302.641 598.552 303.277C590.464 308.854 584.205 316.769 578.18 324.426C562.204 344.726 549.006 366.288 539.28 390.257L538.835 390.407L538.493 389.75C540.038 375.726 544.335 362.029 550.318 349.3C560.616 327.392 578.104 308.814 601.08 300.498Z"/>
	<path fill="#FEFEFE" transform="scale(0.250466 0.250466)" d="M415.471 299.385C425.613 301.532 433.518 305.127 442.055 310.979C462.101 324.724 474.588 345.696 481.459 368.666C483.97 377.064 485.508 385.706 487.132 394.307L479.775 377.213C474.069 365.392 467.304 353.883 459.987 343C448.393 325.756 434.17 309.034 415.471 299.385Z"/>
	<path fill="#F47E2E" transform="scale(0.250466 0.250466)" d="M464.008 387.533L464.011 386.842C463.975 382.423 462.273 378.569 460.724 374.485C455.936 361.861 449.174 350.8 443.291 338.753C452.137 349.204 460.249 360.262 467.851 371.662C472.21 378.199 476.727 384.799 479.939 392C488.939 412.177 491.516 437.594 489.833 459.466C489.672 461.561 489.334 461.996 488.037 463.58C486.263 457.02 485.692 450.127 484.025 443.5C479.107 423.949 472.288 405.872 464.008 387.533Z"/>
	<path fill="#F47E2E" transform="scale(0.250466 0.250466)" d="M536.943 459.361L534.963 458.25C533.329 456.272 533.627 451.436 533.655 448.836C533.871 428.084 537.354 406.532 547.008 387.955C550.445 381.342 554.697 375.206 558.631 368.89C560.968 365.136 562.994 361.182 565.592 357.595C567.509 354.948 569.882 352.666 571.869 350.072C575.737 345.021 579.12 340.445 583.685 335.985C581.778 340.102 579.078 343.822 576.93 347.826L565.214 372.41C563.861 375.545 561.277 380.588 561.627 383.998L561.765 385.001C554.735 401.111 547.515 416.676 542.737 433.661C540.354 442.129 539.261 450.93 536.943 459.361Z"/>
	<path fill="#F47E2E" transform="scale(0.250466 0.250466)" d="M699.168 205.523C723.745 215.149 747.574 227.665 771.381 239.043L793.211 249.474C797.99 251.744 802.9 253.663 807.266 256.692C809.494 268.233 810.069 280.478 810.444 292.236L810.543 327.221L810.487 336.163C810.476 337.592 810.216 339.561 810.738 340.871C807.967 388.575 805.511 436.412 795.363 483.264C791.517 501.017 787.365 518.701 781.75 535.994C778.074 547.316 772.985 558.266 769.839 569.742C768.914 573.116 768.474 576.149 768.864 579.632C767.35 579.904 763.18 586.155 762.016 587.5C754.751 595.889 746.603 600.909 736.734 605.592L746.108 594.863C751.605 588.067 755.945 580.657 759.718 572.794C754.661 574.406 750.032 575.566 744.729 576.073C725.333 575.15 706.523 572.293 689.25 562.805C661.65 547.644 652.598 516.817 645.512 488.25L640.288 466.559L645.371 463.595C651.955 460.154 659.03 457.579 666.034 455.139C683.188 449.163 702.446 444.407 720.75 446.702C725.235 447.265 729.739 448.932 734.052 450.273C726.113 438.932 712.604 432.656 702.694 423.457C708.181 422.329 716.897 422.826 722.341 424.232C729.65 426.121 736.378 428.108 743.326 431.186C739.016 419.194 734.594 407.114 728.978 395.666C723.507 384.515 716.734 373.716 709.524 363.604L688.224 335.806C690.995 328.982 692.363 321.549 693.871 314.369C698.786 290.96 701.487 267.516 701.532 243.592C701.546 235.696 701.679 227.764 700.763 219.909C699.83 215.089 699.364 210.43 699.168 205.523Z"/>
	<path fill="#E52B03" transform="scale(0.250466 0.250466)" d="M699.168 205.523C723.745 215.149 747.574 227.665 771.381 239.043L793.211 249.474C797.99 251.744 802.9 253.663 807.266 256.692C809.494 268.233 810.069 280.478 810.444 292.236L810.543 327.221L810.487 336.163C810.476 337.592 810.216 339.561 810.738 340.871C807.967 388.575 805.511 436.412 795.363 483.264C791.517 501.017 787.365 518.701 781.75 535.994C778.074 547.316 772.985 558.266 769.839 569.742C768.914 573.116 768.474 576.149 768.864 579.632C767.35 579.904 763.18 586.155 762.016 587.5C754.751 595.889 746.603 600.909 736.734 605.592L746.108 594.863C751.605 588.067 755.945 580.657 759.718 572.794C754.661 574.406 750.032 575.566 744.729 576.073L754.407 553.989C757.062 547.726 759.229 541.317 761.319 534.849C768.17 513.649 774.056 491.725 778.094 469.813C784.792 433.459 787.439 396.777 788.191 359.867C788.795 330.164 788.094 300.176 784.921 270.619L762.707 255.544L712.878 225.523C710.14 224.007 703.567 219.342 700.763 219.909C699.83 215.089 699.364 210.43 699.168 205.523Z"/>
	<defs>
		<linearGradient id="gradient_4" gradientUnits="userSpaceOnUse" x1="514.43628" y1="855.43671" x2="493.85898" y2="701.5321">
			<stop offset="0" stop-color="#AF978E"/>
			<stop offset="1" stop-color="#ECDFDD"/>
		</linearGradient>
	</defs>
	<path fill="url(#gradient_4)" transform="scale(0.250466 0.250466)" d="M261.112 732.238L765.396 734.774C761.847 742.443 756.011 749.147 750.704 755.663L734.524 775.607C737.788 781.532 743.282 786.833 747.748 791.931L774.676 822.311L752.75 822.433L242.461 824.207L287.61 780.166L255.426 732.435L261.112 732.238Z"/>
	<path fill="#FEFEFE" transform="scale(0.250466 0.250466)" d="M364.352 791.513C365.698 791.568 367.036 791.543 368.349 791.859C369.876 793.914 371.588 795.554 373.461 797.275C370.977 798.373 368.688 798.054 366.083 797.551C365.28 795.583 364.836 793.575 364.352 791.513Z"/>
	<path transform="scale(0.250466 0.250466)" d="M534.819 759.176L544.399 759.502C544.44 761.654 534.586 775.488 532.697 778.001C531.504 779.587 528.563 782.456 527.959 784.165C527.64 785.068 527.899 787.259 527.906 788.283L528.018 801.738L519.098 801.796L518.991 788.915C518.986 787.914 519.27 785.806 518.97 785.002C518.52 783.797 517.216 782.199 516.511 781.073L502.334 759.989L513.541 759.974L523.951 777.112L534.819 759.176Z"/>
	<path transform="scale(0.250466 0.250466)" d="M366.083 797.551C366.48 798.175 366.745 798.825 367.043 799.5L366.25 799.992L343.997 799.999C342.323 800 339.317 800.42 337.766 800.001C336.426 799.639 333.828 796.607 332.815 795.587C331.898 794.663 329.93 792.756 329.434 791.561C328.855 790.165 329.327 785.866 329.339 784.187L329.542 760.495L340.645 760.501L340.522 783.332C340.52 784.735 340.074 788.414 340.553 789.5C340.762 789.972 341.164 790.333 341.469 790.75C344.069 791.817 347.039 791.5 349.817 791.512L364.352 791.513C364.836 793.575 365.28 795.583 366.083 797.551Z"/>
	<path transform="scale(0.250466 0.250466)" d="M567.034 758.987L600.606 758.981L600.624 766.508L576.512 766.517L576.499 776.959L597.515 777.212L597.505 785.507L576.118 785.509L576.224 801.509L567.028 801.511L567.034 758.987Z"/>
	<path transform="scale(0.250466 0.250466)" d="M417.097 771.626C417.448 767.829 417.816 764.946 420.873 762.25C425.292 758.353 448.799 760.088 455.413 760.303L455.541 768.104L454.683 768.207C446.524 769.112 437.425 767.052 429.433 768.559C428.489 768.737 428.57 768.564 428.024 769.234C425.942 771.793 426.873 779.402 426.904 782.678C426.922 784.589 426.709 786.878 427.115 788.75C427.328 789.735 427.809 790.624 428.692 791.129C431.107 792.507 435.329 792.19 438.03 792.208L455.485 792.221L455.499 800.14C455.104 800.296 454.89 800.403 454.428 800.454C451.007 800.836 447.215 800.46 443.75 800.513C436.765 800.622 425.618 802.241 420.001 797.093C416.369 793.764 416.731 787.735 416.585 783.249L417.097 771.626Z"/>
	<path fill="#D2B9B2" transform="scale(0.250466 0.250466)" d="M455.413 760.303C456.673 759.256 457.745 759.657 459.348 759.71C460.176 760.953 459.931 762.294 459.977 763.766L460.271 763.894L459.945 799.977C458.404 799.875 457.013 799.724 455.499 800.14L455.485 792.221L438.03 792.208C435.329 792.19 431.107 792.507 428.692 791.129C427.809 790.624 427.328 789.735 427.115 788.75C426.709 786.878 426.922 784.589 426.904 782.678C426.873 779.402 425.942 771.793 428.024 769.234C428.57 768.564 428.489 768.737 429.433 768.559C437.425 767.052 446.524 769.112 454.683 768.207L455.541 768.104L455.413 760.303Z"/>
	<path fill="#FEFEFE" transform="scale(0.250466 0.250466)" d="M455.413 760.303C456.673 759.256 457.745 759.657 459.348 759.71C460.176 760.953 459.931 762.294 459.977 763.766L459.75 768.624C458.298 769.117 456.952 768.513 455.541 768.104L455.413 760.303Z"/>
	<path transform="scale(0.250466 0.250466)" d="M460.271 763.894L460.429 760.75C462.128 759.589 467.256 760.219 469.501 760.231L469.511 780.716L488.967 760.224L502.326 759.96L480.848 780.969C487.874 787.121 494.875 793.225 500.468 800.756C497.592 800.915 492.56 801.707 489.835 800.892C489.01 800.645 487.155 798.891 486.446 798.255L469.521 783.528L469.495 800.517C466.985 800.472 462.088 800.992 459.945 799.977L460.271 763.894Z"/>
	<path transform="scale(0.250466 0.250466)" d="M680.082 758.472L692.334 758.498L678.13 780.673L693.777 802.987L681.491 803.024L672.541 789.222C669.073 792.824 666.504 797.19 663.92 801.44C660.836 803.763 653.32 802.652 649.427 802.45C655.907 795.337 660.916 788.012 666.133 779.98L652.536 759.008L664.259 758.978L672.657 770.435L680.082 758.472Z"/>
	<path transform="scale(0.250466 0.250466)" d="M368.349 791.859L368.485 760.494L379.502 760.496L379.494 781.648C379.481 784.378 378.836 788.278 380.25 790.625C381.217 791.212 382.003 791.369 383.111 791.483C387.307 791.913 391.606 791.762 395.815 791.618C397.597 791.557 399.456 791.88 400.863 790.75C401.952 787.248 401.538 783.216 401.544 779.583L401.524 759.994L411.134 759.987L411.314 771.878C412.026 771.596 411.685 771.656 412.502 771.663L417.097 771.626L416.585 783.249C414.825 783.515 413.177 783.812 411.475 784.337C411.319 788.708 411.5 794.346 408.16 797.66C404.197 801.591 397.314 800.517 392.185 800.483L380.25 800.361C377.23 800.241 375.889 798.9 373.461 797.275C371.588 795.554 369.876 793.914 368.349 791.859Z"/>
	<path fill="#FEFEFE" transform="scale(0.250466 0.250466)" d="M411.314 771.878C412.026 771.596 411.685 771.656 412.502 771.663L417.097 771.626L416.585 783.249C414.825 783.515 413.177 783.812 411.475 784.337L411.314 771.878Z"/>
	<path transform="scale(0.250466 0.250466)" d="M615.747 759.24L631.308 758.992C634.039 758.973 637.064 758.737 639.765 759.133C642.687 759.563 645.206 761.799 646.856 764.133C650.313 769.026 649.163 778.344 649.111 784.211C649.083 787.265 649.324 790.68 648.692 793.656L648.553 794.25C648.381 795.026 648.231 795.764 647.869 796.481C646.406 799.388 643.995 800.513 641.018 801.391C632.859 801.98 624.051 802.686 615.925 801.649L615 801.527C614.048 801.417 613.242 801.367 612.353 800.929C610.619 800.075 609.126 798.461 608.692 796.533C608.116 793.974 608.523 790.841 608.477 788.198C608.362 781.62 608.077 774.975 608.535 768.406C608.658 766.638 608.873 763.754 610.049 762.325C611.505 760.556 613.583 759.743 615.747 759.24Z"/>
	<path fill="#D2B9B2" transform="scale(0.250466 0.250466)" d="M618.209 767.049C624.802 766.977 631.966 766.42 638.406 767.874L638.17 793.616L617.523 793.656L617.474 776.991C617.477 773.708 617.118 770.189 618.209 767.049Z"/>
</svg>
